<?xml version="1.0" encoding="UTF-8"?><svg id="Layer_2" xmlns="http://www.w3.org/2000/svg" xmlns:xlink="http://www.w3.org/1999/xlink" viewBox="0 0 4000 3000"><defs><linearGradient id="linear-gradient" x1="6052.54" y1="-453.16" x2="6052.54" y2="-478.16" gradientTransform="translate(-3177.72 1206.42)" gradientUnits="userSpaceOnUse"><stop offset="0" stop-color="#be1e2d"/><stop offset="1" stop-color="#ffde17"/></linearGradient><linearGradient id="linear-gradient-2" x1="6464.51" y1="96.87" x2="6464.51" y2="71.87" gradientTransform="translate(-4139.72 1068.35)" xlink:href="#linear-gradient"/><linearGradient id="linear-gradient-3" x1="6342.55" y1="96.87" x2="6342.55" y2="71.87" gradientTransform="translate(-4017.76 946.4)" xlink:href="#linear-gradient"/><linearGradient id="linear-gradient-4" x1="6466.53" y1="236.41" x2="6466.53" y2="211.41" gradientTransform="translate(-4371.06 1020.61)" xlink:href="#linear-gradient"/><linearGradient id="linear-gradient-5" x1="7275.13" y1="1126.98" x2="7275.13" y2="1101.98" gradientTransform="translate(-4371.06 1020.61)" xlink:href="#linear-gradient"/><linearGradient id="linear-gradient-6" x1="7091.61" y1="1126.98" x2="7091.61" y2="1101.98" gradientTransform="translate(-4371.06 1020.61)" xlink:href="#linear-gradient"/><linearGradient id="linear-gradient-7" x1="5248.74" y1="1128.93" x2="5248.74" y2="1103.93" gradientTransform="translate(-4371.06 1020.61)" xlink:href="#linear-gradient"/><linearGradient id="linear-gradient-8" x1="5378.09" y1="1128.93" x2="5378.09" y2="1103.93" gradientTransform="translate(-4371.06 1020.61)" xlink:href="#linear-gradient"/><linearGradient id="linear-gradient-9" x1="5517.81" y1="475.63" x2="5517.81" y2="450.63" gradientTransform="translate(-4371.06 1020.61)" xlink:href="#linear-gradient"/><linearGradient id="linear-gradient-10" x1="5383.49" y1="475.63" x2="5383.49" y2="450.63" gradientTransform="translate(-4371.06 1020.61)" xlink:href="#linear-gradient"/><linearGradient id="linear-gradient-11" x1="5645.34" y1="314.12" x2="5645.34" y2="289.12" gradientTransform="translate(-4360.88 995.33)" xlink:href="#linear-gradient"/><linearGradient id="linear-gradient-12" x1="5761.52" y1="314.12" x2="5761.52" y2="289.12" gradientTransform="translate(-4477.06 1111.51)" xlink:href="#linear-gradient"/><linearGradient id="linear-gradient-13" x1="5529.16" y1="314.12" x2="5529.16" y2="289.12" gradientTransform="translate(-4244.7 879.15)" xlink:href="#linear-gradient"/><linearGradient id="linear-gradient-14" x1="5287.53" y1="314.12" x2="5287.53" y2="289.12" gradientTransform="translate(-4003.07 637.51)" xlink:href="#linear-gradient"/><linearGradient id="linear-gradient-15" x1="5156.51" y1="314.12" x2="5156.51" y2="289.12" gradientTransform="translate(-3872.05 506.49)" xlink:href="#linear-gradient"/><linearGradient id="linear-gradient-16" x1="5249.17" y1="475.63" x2="5249.17" y2="450.63" gradientTransform="translate(-4371.06 1020.61)" xlink:href="#linear-gradient"/><linearGradient id="linear-gradient-17" x1="5927.31" y1="898.77" x2="5927.31" y2="873.77" gradientTransform="translate(-3986.09 1021.79) scale(.94 1)" xlink:href="#linear-gradient"/><linearGradient id="linear-gradient-18" x1="6052.53" y1="898.77" x2="6052.53" y2="873.77" gradientTransform="translate(-4103.75 904.13) scale(.94 1)" xlink:href="#linear-gradient"/><linearGradient id="linear-gradient-19" x1="6177.75" y1="898.77" x2="6177.75" y2="873.77" gradientTransform="translate(-4221.41 786.46) scale(.94 1)" xlink:href="#linear-gradient"/><linearGradient id="linear-gradient-20" x1="6302.97" y1="898.77" x2="6302.97" y2="873.77" gradientTransform="translate(-4339.07 668.8) scale(.94 1)" xlink:href="#linear-gradient"/><linearGradient id="linear-gradient-21" x1="6987.67" y1="1095.7" x2="6987.67" y2="1070.7" gradientTransform="translate(-4430.44 974.56)" xlink:href="#linear-gradient"/><linearGradient id="linear-gradient-22" x1="6858.5" y1="1095.7" x2="6858.5" y2="1070.7" gradientTransform="translate(-4301.27 845.39)" xlink:href="#linear-gradient"/><linearGradient id="linear-gradient-23" x1="6624.19" y1="1095.7" x2="6624.19" y2="1070.7" gradientTransform="translate(-4066.96 611.08)" xlink:href="#linear-gradient"/><linearGradient id="linear-gradient-24" x1="6495.02" y1="1095.7" x2="6495.02" y2="1070.7" gradientTransform="translate(-3937.79 481.91)" xlink:href="#linear-gradient"/><linearGradient id="linear-gradient-25" x1="6448.03" y1="1064.36" x2="6448.03" y2="1039.36" gradientTransform="translate(-3779.12 431.88)" xlink:href="#linear-gradient"/><linearGradient id="linear-gradient-26" x1="6174.15" y1="1061.73" x2="6174.15" y2="1036.73" gradientTransform="translate(-3231.36 437.14)" xlink:href="#linear-gradient"/><linearGradient id="linear-gradient-27" x1="6189.48" y1="236.41" x2="6189.48" y2="211.41" gradientTransform="translate(-4371.06 1020.61)" xlink:href="#linear-gradient"/><linearGradient id="linear-gradient-28" x1="6052.18" y1="236.41" x2="6052.18" y2="211.41" gradientTransform="translate(-4371.06 1020.61)" xlink:href="#linear-gradient"/><linearGradient id="linear-gradient-29" x1="6603.83" y1="236.41" x2="6603.83" y2="211.41" gradientTransform="translate(-4371.06 1020.61)" xlink:href="#linear-gradient"/><linearGradient id="linear-gradient-30" x1="6220.46" y1="96.87" x2="6220.46" y2="71.87" gradientTransform="translate(-3895.67 824.31)" xlink:href="#linear-gradient"/><linearGradient id="linear-gradient-31" x1="5923.21" y1="-453.16" x2="5923.21" y2="-478.16" gradientTransform="translate(-3048.39 1077.09)" xlink:href="#linear-gradient"/></defs><g id="bg"><rect width="4000" height="3000" style="fill:#a09f9f;"/></g><g id="Coastline_Top"><g id="Coastline_Top_Bg"><rect x="785.95" y="2485.26" width="808.91" height="175.41" style="fill:#414141;"/><rect x="1583.45" y="1483.74" width="735.96" height="644.66" style="fill:#3e603f;"/><rect x="1728.99" y="1953.46" width="442.17" height="174.94" style="fill:#353a35;"/><polyline points="786.47 707.28 1271.95 707.28 1271.95 514.37 3278.55 514.37 3278.55 1278.2 3084.21 1278.2 3084.21 2588.76 1939.77 2588.76 1939.77 2393.13 1594.86 2393.13 1594.86 2510.26 785.95 2510.26" style="fill:#252525;"/><rect x="1595.95" y="1496.24" width="716.34" height="619.66" style="fill:#334926;"/></g><g id="Coastline_Top-2"><rect x="1939.77" y="2563.76" width="1144.43" height="25" style="fill:#6f8093;"/><rect x="1939.77" y="2514.2" width="25" height="57.65" style="fill:#6f8093;"/><rect x="1939.77" y="2368.13" width="25" height="57.65" style="fill:#6f8093;"/><rect x="2312.29" y="2523.07" width="25" height="57.65" style="fill:#6f8093;"/><rect x="2312.29" y="1416.72" width="25" height="1009.04" style="fill:#6f8093;"/><rect x="3059.21" y="2319.85" width="25" height="252" style="fill:#6f8093;"/><rect x="2803.02" y="2116.1" width="25" height="512.37" transform="translate(5187.81 -443.24) rotate(90)" style="fill:#6f8093;"/><rect x="1757.68" y="2186.05" width="25" height="389.17" transform="translate(4150.82 610.45) rotate(90)" style="fill:#6f8093;"/><rect x="1569.86" y="2322.98" width="25" height="187.28" transform="translate(3164.72 4833.24) rotate(180)" style="fill:#6f8093;"/><rect x="1069.64" y="2124.54" width="4.7" height="25" style="fill:#6f8093;"/><rect x="1213.91" y="1970.51" width="382.04" height="25" style="fill:#6f8093;"/><rect x="1213.91" y="1711.04" width="25" height="284.47" style="fill:#6f8093;"/><rect x="1570.95" y="1471.24" width="25" height="25" style="fill:#6f8093;"/><rect x="1570.95" y="1966.89" width="25" height="232.88" style="fill:#6f8093;"/><rect x="1520.42" y="1471.24" width="221.48" height="25" style="fill:#6f8093;"/><rect x="1898.03" y="1471.24" width="439.26" height="25" style="fill:#6f8093;"/><rect x="1213.91" y="1471.24" width="156.18" height="25" style="fill:#6f8093;"/><rect x="786.47" y="1120.89" width="25" height="558.14" transform="translate(1597.94 2799.93) rotate(180)" style="fill:#6f8093;"/><rect x="1520.42" y="2115.9" width="208.57" height="25" style="fill:#6f8093;"/><rect x="1884.73" y="2115.9" width="130.69" height="25" style="fill:#6f8093;"/><rect x="2171.16" y="2115.9" width="166.13" height="25" style="fill:#6f8093;"/><rect x="1212.29" y="1935.5" width="25" height="90.68" transform="translate(690.18 4247.56) rotate(-135)" style="fill:#6f8093;"/><polygon points="1105.46 2118.49 1074.4 2149.54 1069.64 2144.78 1069.64 2124.54 1090.92 2103.95 1105.46 2118.49" style="fill:#6f8093;"/><rect x="1507.92" y="2432.41" width="25" height="130.71" transform="translate(-977.34 4018.18) rotate(-90)" style="fill:#6f8093;"/><rect x="1212.54" y="2410.83" width="69.63" height="58.18" transform="translate(-684.45 4383.43) rotate(-108.1)" style="fill:#6f8093;"/><rect x="1379.68" y="2083.24" width="207.18" height="57.66" transform="translate(2966.55 4224.15) rotate(180)" style="fill:#6f8093;"/><rect x="1024.86" y="2246.35" width="25" height="502.83" transform="translate(-1460.4 3535.12) rotate(-90)" style="fill:#6f8093;"/><rect x="785.95" y="1862.81" width="25" height="647.46" style="fill:#6f8093;"/><rect x="2559.34" y="2291.94" width="201.91" height="76.17" style="fill:#6f8093;"/><rect x="2807.68" y="2291.94" width="97.57" height="88.7" style="fill:#6f8093;"/><polyline points="1086.47 2492.81 1132.64 2315.94 1159.25 2315.94 1159.25 2231.42 1086.47 2254.11 1065.34 2231.42 1022.29 2258.81 1073.16 2311.24 1026.99 2497.76" style="fill:#6f8093;"/><rect x="1889.42" y="2271.59" width="161.22" height="96.54" style="fill:#6f8093;"/><rect x="2243.95" y="2277.98" width="80.85" height="90.13" style="fill:#6f8093;"/><rect x="927.99" y="1676.94" width="135" height="223.04" style="fill:#6f8093;"/><rect x="1367.03" y="1688.68" width="62.8" height="62.8" style="fill:#6f8093;"/><rect x="1404.93" y="1737.98" width="68.93" height="245.03" style="fill:#6f8093;"/><path d="M1508.56,1973.53c0,7.64-1.28,15.02-3.67,21.98h-163.66c-2.39-6.96-3.67-14.34-3.67-21.98,0-1.01,.02-2.02,.07-3.02,1.79-40.38,39.34-72.63,85.43-72.63s83.64,32.25,85.43,72.63c.05,1,.07,2.01,.07,3.02Z" style="fill:#6f8093;"/><rect x="791.42" y="1134.98" width="274.3" height="74.74" style="fill:#6f8093;"/><rect x="796.12" y="1189.37" width="56.35" height="205.43" style="fill:#6f8093;"/><rect x="1213.91" y="1488.33" width="25" height="58.7" style="fill:#6f8093;"/><rect x="1898.03" y="1394.55" width="119.22" height="183.65" style="fill:#6f8093;"/><rect x="2739.34" y="1715.68" width="86.87" height="270" style="fill:#6f8093;"/><rect x="2768.68" y="1921.24" width="127.96" height="64.43" style="fill:#6f8093;"/><rect x="3004.64" y="1610.02" width="79.57" height="375.65" style="fill:#6f8093;"/><rect x="3059.21" y="1163.42" width="25" height="1062.91" style="fill:#6f8093;"/><rect x="2544.73" y="2122.59" width="90.91" height="25" style="fill:#6f8093;"/><rect x="2805.47" y="2122.59" width="13.69" height="25" style="fill:#6f8093;"/><rect x="2988.99" y="2122.59" width="80.17" height="25" style="fill:#6f8093;"/><rect x="2544.73" y="1850.67" width="25" height="13.57" style="fill:#6f8093;"/><rect x="2544.73" y="2122.59" width="25" height="25" style="fill:#6f8093;"/><rect x="2544.73" y="1232.02" width="25" height="268.74" style="fill:#6f8093;"/><rect x="2544.73" y="1759.11" width="25" height="13.43" style="fill:#6f8093;"/><rect x="2005.77" y="1232.02" width="21.05" height="25" style="fill:#6f8093;"/><rect x="1888.16" y="1232.02" width="21.05" height="25" style="fill:#6f8093;"/><rect x="2301.42" y="1232.02" width="268.31" height="25" style="fill:#6f8093;"/><rect x="1570.95" y="1232.02" width="41.52" height="25" style="fill:#6f8093;"/><rect x="1173.15" y="616.69" width="25" height="206.18" transform="translate(465.86 1905.43) rotate(-90)" style="fill:#6f8093;"/><rect x="881.1" y="612.65" width="25" height="214.27" transform="translate(173.82 1613.39) rotate(-90)" style="fill:#6f8093;"/><rect x="786.47" y="711.78" width="25" height="315.98" style="fill:#6f8093;"/><rect x="2312.29" y="732.46" width="25" height="115.17" style="fill:#6f8093;"/><rect x="2312.29" y="1213.76" width="25" height="56.83" style="fill:#6f8093;"/><rect x="2312.29" y="514.11" width="25" height="131.74" style="fill:#6f8093;"/><rect x="3109.53" y="910.24" width="25" height="131.74" style="fill:#6f8093;"/><rect x="3253.55" y="514.37" width="25" height="425.35" style="fill:#6f8093;"/><rect x="2862.32" y="514.37" width="25" height="32.39" style="fill:#6f8093;"/><rect x="2862.32" y="805.42" width="25" height="35.14" style="fill:#6f8093;"/><rect x="2612.56" y="514.37" width="653.5" height="25" style="fill:#6f8093;"/><rect x="1271.95" y="514.37" width="518.08" height="25" style="fill:#6f8093;"/><rect x="2122.9" y="514.37" width="393.03" height="25" style="fill:#6f8093;"/><rect x="1570.95" y="526.87" width="25" height="730.15" style="fill:#6f8093;"/><rect x="1271.95" y="514.11" width="25" height="228.52" style="fill:#6f8093;"/><rect x="1271.95" y="1004.67" width="25" height="13.7" style="fill:#6f8093;"/><rect x="1271.95" y="1108.57" width="25" height="13.7" style="fill:#6f8093;"/><rect x="1271.95" y="1471.24" width="25" height="25" style="fill:#6f8093;"/><rect x="3253.55" y="1121.02" width="25" height="157.17" style="fill:#6f8093;"/><rect x="3162.63" y="1162.27" width="25" height="206.85" transform="translate(4440.83 -1909.43) rotate(90)" style="fill:#6f8093;"/><rect x="2852.36" y="1473.87" width="26.09" height="25" style="fill:#6f8093;"/><rect x="2733.25" y="1471.24" width="26.09" height="25" style="fill:#6f8093;"/><rect x="3007.13" y="1473.87" width="52.08" height="25" style="fill:#6f8093;"/><rect x="2557.23" y="1471.24" width="47.34" height="25" style="fill:#6f8093;"/><rect x="2537.11" y="610.17" width="25" height="435.8" transform="translate(3377.68 -1721.54) rotate(90)" style="fill:#6f8093;"/><rect x="3057.93" y="619.95" width="25" height="416.24" transform="translate(3898.5 -2242.37) rotate(90)" style="fill:#6f8093;"/><rect x="2405.95" y="1190.55" width="85.04" height="51.13" style="fill:#6f8093;"/><rect x="2471.68" y="1200.46" width="237.91" height="28.7" style="fill:#6f8093;"/><rect x="2483.68" y="1024.63" width="146.09" height="201.39" style="fill:#6f8093;"/><rect x="2908.38" y="1052.81" width="86.09" height="199.83" style="fill:#6f8093;"/><rect x="2949.08" y="1163.42" width="145.04" height="86.61" style="fill:#6f8093;"/><rect x="2726.82" y="828.07" width="40.7" height="117.78" style="fill:#6f8093;"/><rect x="2400.21" y="834.2" width="195.65" height="61.04" style="fill:#6f8093;"/><rect x="3147.86" y="665.42" width="118.2" height="162.65" style="fill:#6f8093;"/><rect x="894.12" y="806.55" width="60.86" height="191.48" style="fill:#6f8093;"/><rect x="896.55" y="806.55" width="273.91" height="72.52" style="fill:#6f8093;"/><rect x="1755.34" y="949.5" width="46.65" height="201.39" style="fill:#6f8093;"/><rect x="1702.12" y="1115.42" width="137.22" height="35.48" style="fill:#6f8093;"/><rect x="1588.38" y="605.15" width="43.3" height="573.39" style="fill:#6f8093;"/><rect x="1603.77" y="864.72" width="101.74" height="55.04" style="fill:#6f8093;"/><rect x="2164.12" y="994.89" width="42.26" height="157.83" style="fill:#6f8093;"/><rect x="2077.25" y="1082.94" width="117.39" height="69.78" style="fill:#6f8093;"/><path d="M2008.01,622.13c-74.8-31.66-161.1,3.33-192.75,78.12-6.11,14.43-9.74,29.29-11.07,44.1l63.48,26.87c-2.52-15.18-.9-31.23,5.54-46.44,18.11-42.8,67.49-62.81,110.28-44.7,42.8,18.12,62.81,67.5,44.7,110.29-6.44,15.21-16.83,27.55-29.48,36.31l63.48,26.87c9.7-11.27,17.84-24.22,23.95-38.65,31.66-74.8-3.31-161.1-78.12-192.76Z" style="fill:#6f8093;"/><g><rect x="2744.84" y="1637.02" width="75.87" height="75.87" style="fill:#346cb5; stroke:#231f20; stroke-miterlimit:10; stroke-width:10px;"/><circle cx="2782.77" cy="1674.96" r="37.93" style="fill:#29558f;"/><path d="M2775.5,1680.9l-4.13,12.51h-5.31l13.51-39.77h6.2l13.57,39.77h-5.49l-4.25-12.51h-14.1Zm13.04-4.01l-3.89-11.45c-.89-2.6-1.48-4.96-2.07-7.26h-.12c-.59,2.36-1.24,4.78-2.01,7.2l-3.89,11.51h11.98Z" style="fill:#fff;"/></g><g><rect x="2911.14" y="976.11" width="75.87" height="75.87" style="fill:#346cb5; stroke:#231f20; stroke-miterlimit:10; stroke-width:10px;"/><circle cx="2949.08" cy="1014.05" r="37.93" style="fill:#29558f;"/><path d="M2937.79,993.86c2.24-.47,5.78-.83,9.38-.83,5.13,0,8.44,.89,10.92,2.89,2.07,1.53,3.3,3.89,3.3,7.02,0,3.84-2.54,7.2-6.73,8.73v.12c3.78,.94,8.2,4.07,8.2,9.97,0,3.42-1.36,6.02-3.36,7.97-2.77,2.54-7.26,3.72-13.75,3.72-3.54,0-6.25-.24-7.97-.47v-39.12Zm5.13,16.29h4.66c5.43,0,8.61-2.83,8.61-6.67,0-4.66-3.54-6.49-8.73-6.49-2.36,0-3.72,.18-4.54,.35v12.8Zm0,19.06c1,.18,2.48,.24,4.31,.24,5.31,0,10.21-1.95,10.21-7.73,0-5.43-4.66-7.67-10.27-7.67h-4.25v15.16Z" style="fill:#fff;"/></g><g><rect x="1136.44" y="1870.83" width="75.87" height="75.87" style="fill:#346cb5; stroke:#231f20; stroke-miterlimit:10; stroke-width:10px;"/><circle cx="1174.38" cy="1908.76" r="37.93" style="fill:#29558f;"/><path d="M1167.1,1914.7l-4.13,12.51h-5.31l13.51-39.77h6.2l13.57,39.77h-5.49l-4.25-12.51h-14.1Zm13.04-4.01l-3.89-11.45c-.89-2.6-1.48-4.96-2.07-7.26h-.12c-.59,2.36-1.24,4.78-2.01,7.2l-3.89,11.51h11.98Z" style="fill:#fff;"/></g><g><rect x="1065.73" y="1133.15" width="75.87" height="75.87" style="fill:#346cb5; stroke:#231f20; stroke-miterlimit:10; stroke-width:10px;"/><circle cx="1103.66" cy="1171.09" r="37.93" style="fill:#29558f;"/><path d="M1092.38,1150.9c2.24-.47,5.78-.83,9.38-.83,5.13,0,8.44,.89,10.92,2.89,2.07,1.53,3.3,3.89,3.3,7.02,0,3.84-2.54,7.2-6.73,8.73v.12c3.78,.94,8.2,4.07,8.2,9.97,0,3.42-1.36,6.02-3.36,7.97-2.77,2.54-7.26,3.72-13.75,3.72-3.54,0-6.25-.24-7.97-.47v-39.12Zm5.13,16.29h4.66c5.43,0,8.61-2.83,8.61-6.67,0-4.66-3.54-6.49-8.73-6.49-2.36,0-3.72,.18-4.54,.35v12.8Zm0,19.06c1,.18,2.48,.24,4.31,.24,5.31,0,10.21-1.95,10.21-7.73,0-5.43-4.66-7.67-10.27-7.67h-4.25v15.16Z" style="fill:#fff;"/></g><path d="M2988.58,551.29v111.68h111.68v-111.68h-111.68Zm97.34,97.34h-83v-83h83v83Z" style="fill:#29558f;"/><path d="M2584.01,1312.97v111.68h111.68v-111.68h-111.68Zm97.34,97.34h-83v-83h83v83Z" style="fill:#29558f;"/><path d="M2188.11,2143.93v111.68h111.68v-111.68h-111.68Zm97.34,97.34h-83v-83h83v83Z" style="fill:#29558f;"/><path d="M838.29,2341.12v111.68h111.68v-111.68h-111.68Zm97.34,97.34h-83v-83h83v83Z" style="fill:#29558f;"/><path d="M868.72,1284.64v111.68h111.68v-111.68h-111.68Zm97.34,97.34h-83v-83h83v83Z" style="fill:#29558f;"/><rect x="2810.15" y="728.26" width="129.33" height="25" transform="translate(3615.58 -2134.06) rotate(90)" style="fill:url(#linear-gradient);"/><rect x="2263.74" y="1140.22" width="122.09" height="25" transform="translate(3477.51 -1172.07) rotate(90)" style="fill:url(#linear-gradient-2);"/><rect x="2263.74" y="1018.27" width="122.09" height="25" transform="translate(3355.56 -1294.02) rotate(90)" style="fill:url(#linear-gradient-3);"/><rect x="2026.82" y="1232.02" width="137.3" height="25" style="fill:url(#linear-gradient-4);"/><rect x="2819.16" y="2122.59" width="169.83" height="25" style="fill:url(#linear-gradient-5);"/><rect x="2635.64" y="2122.59" width="169.83" height="25" style="fill:url(#linear-gradient-6);"/><rect x="810.95" y="2124.54" width="133.47" height="25" style="fill:url(#linear-gradient-7);"/><rect x="944.42" y="2124.54" width="125.22" height="25" style="fill:url(#linear-gradient-8);"/><rect x="1079.59" y="1471.24" width="134.32" height="25" style="fill:url(#linear-gradient-9);"/><rect x="945.27" y="1471.24" width="134.32" height="25" style="fill:url(#linear-gradient-10);"/><rect x="1226.36" y="1284.47" width="116.18" height="25" transform="translate(2581.42 12.52) rotate(90)" style="fill:url(#linear-gradient-11);"/><rect x="1226.36" y="1400.65" width="116.18" height="25" transform="translate(2697.6 128.7) rotate(90)" style="fill:url(#linear-gradient-12);"/><rect x="1226.36" y="1168.29" width="116.18" height="25" transform="translate(2465.24 -103.66) rotate(90)" style="fill:url(#linear-gradient-13);"/><rect x="1218.94" y="926.66" width="131.02" height="25" transform="translate(2223.61 -345.29) rotate(90)" style="fill:url(#linear-gradient-14);"/><rect x="1218.94" y="795.64" width="131.02" height="25" transform="translate(2092.59 -476.31) rotate(90)" style="fill:url(#linear-gradient-15);"/><rect x="810.95" y="1471.24" width="134.32" height="25" style="fill:url(#linear-gradient-16);"/><rect x="1524.62" y="1895.56" width="117.66" height="25" transform="translate(-324.63 3491.5) rotate(-90)" style="fill:url(#linear-gradient-17);"/><rect x="1524.62" y="1777.9" width="117.66" height="25" transform="translate(-206.96 3373.84) rotate(-90)" style="fill:url(#linear-gradient-18);"/><rect x="1524.62" y="1660.24" width="117.66" height="25" transform="translate(-89.3 3256.18) rotate(-90)" style="fill:url(#linear-gradient-19);"/><rect x="1524.62" y="1542.58" width="117.66" height="25" transform="translate(28.36 3138.52) rotate(-90)" style="fill:url(#linear-gradient-20);"/><rect x="2492.39" y="2045.26" width="129.67" height="25" transform="translate(4614.99 -499.47) rotate(90)" style="fill:url(#linear-gradient-21);"/><rect x="2492.89" y="1916.08" width="128.68" height="25" transform="translate(4485.81 -628.65) rotate(90)" style="fill:url(#linear-gradient-22);"/><rect x="2492.39" y="1681.78" width="129.67" height="25" transform="translate(4251.51 -862.95) rotate(90)" style="fill:url(#linear-gradient-23);"/><rect x="2492.89" y="1552.6" width="128.68" height="25" transform="translate(4122.33 -992.13) rotate(90)" style="fill:url(#linear-gradient-24);"/><rect x="2604.57" y="1471.24" width="128.68" height="25" transform="translate(5337.82 2967.49) rotate(180)" style="fill:url(#linear-gradient-25);"/><rect x="2878.45" y="1473.87" width="128.68" height="25" transform="translate(5885.58 2972.75) rotate(180)" style="fill:url(#linear-gradient-26);"/><rect x="1749.77" y="1232.02" width="137.3" height="25" style="fill:url(#linear-gradient-27);"/><rect x="1612.47" y="1232.02" width="137.3" height="25" style="fill:url(#linear-gradient-28);"/><rect x="2164.12" y="1232.02" width="137.3" height="25" style="fill:url(#linear-gradient-29);"/><rect x="2263.74" y="896.18" width="122.09" height="25" transform="translate(3233.47 -1416.11) rotate(90)" style="fill:url(#linear-gradient-30);"/><rect x="2810.15" y="598.93" width="129.33" height="25" transform="translate(3486.25 -2263.39) rotate(90)" style="fill:url(#linear-gradient-31);"/></g></g></svg>